<?xml version="1.0" standalone="no"?>
<!DOCTYPE svg PUBLIC "-//W3C//DTD SVG 20010904//EN"
 "http://www.w3.org/TR/2001/REC-SVG-20010904/DTD/svg10.dtd">
<svg version="1.0" xmlns="http://www.w3.org/2000/svg"
 width="1196.000000pt" height="1196.000000pt" viewBox="0 0 1196.000000 1196.000000"
 preserveAspectRatio="xMidYMid meet">
<metadata>
Created by potrace 1.11, written by Peter Selinger 2001-2013
</metadata>
<g transform="translate(0.000000,1196.000000) scale(0.100000,-0.100000)"
fill="#000000" stroke="none">
<path d="M4291 10007 c-2 -89 -5 -238 -6 -332 -2 -93 -4 -170 -5 -170 -5 0 -4
-218 2 -221 4 -2 44 9 90 26 46 17 84 30 86 30 1 -1 37 10 80 24 90 29 297 86
329 91 11 2 30 6 41 9 11 4 31 9 44 12 13 3 30 7 38 9 8 2 17 4 20 4 6 1 11
174 13 471 l2 194 -57 1 c-31 0 -60 3 -63 7 -4 4 -17 3 -29 -1 -11 -4 -37 -6
-56 -4 -19 1 -145 4 -280 7 l-246 6 -3 -163z"/>
<path d="M9226 9873 c-1 -1 -148 -4 -326 -8 -326 -6 -459 -10 -710 -20 -74 -4
-173 -8 -220 -10 -194 -8 -332 -15 -382 -20 -29 -3 -91 -7 -138 -10 -47 -3
-123 -8 -170 -11 -47 -3 -110 -7 -140 -9 -30 -1 -55 -3 -55 -4 0 -1 -22 -4
-50 -6 -27 -2 -81 -6 -120 -10 -38 -3 -92 -8 -120 -11 -27 -2 -75 -6 -105 -9
-30 -3 -82 -8 -115 -11 -33 -2 -76 -7 -95 -9 -19 -3 -60 -7 -90 -10 -30 -3
-71 -8 -90 -11 -19 -3 -51 -7 -70 -9 -19 -1 -55 -5 -80 -9 -25 -3 -61 -8 -80
-11 -19 -3 -54 -7 -77 -10 -23 -3 -57 -8 -75 -10 -36 -4 -101 -15 -133 -21
-11 -3 -41 -6 -68 -9 -26 -2 -51 -6 -55 -9 -5 -3 -30 -8 -58 -11 -62 -9 -70
-10 -119 -20 -52 -10 -60 -12 -220 -40 -11 -2 -27 -6 -35 -9 -8 -3 -28 -7 -45
-10 -117 -21 -151 -29 -160 -37 -5 -5 -10 -51 -11 -102 -1 -50 -3 -161 -5
-245 l-3 -153 -281 6 c-154 3 -317 7 -363 9 -46 1 -85 -1 -88 -6 -2 -4 -7
-123 -10 -265 -6 -274 -11 -443 -13 -456 0 -5 -121 -6 -268 -2 -148 3 -344 8
-438 10 -296 6 -344 8 -339 17 3 5 9 6 13 4 13 -9 35 13 37 36 1 30 18 121 24
133 1 3 3 8 5 13 14 51 21 70 39 105 27 53 74 126 97 152 86 97 178 180 267
239 23 16 42 29 42 30 0 1 -42 3 -92 3 -51 1 -93 2 -93 3 0 5 -435 7 -436 2
-3 -17 -8 -161 -13 -434 l-7 -298 28 -1 c25 -1 -72 -29 -147 -43 -14 -3 -40
-9 -59 -15 -18 -6 -36 -10 -40 -9 -3 0 -8 -1 -11 -2 -5 -2 -10 -3 -63 -14 -30
-7 -61 -13 -92 -20 -103 -23 -257 -55 -285 -60 -19 -4 -66 -13 -105 -21 -38
-8 -79 -17 -90 -19 -39 -7 -100 -19 -120 -23 -11 -2 -31 -6 -45 -9 -14 -2 -36
-7 -50 -11 -14 -3 -32 -7 -40 -8 -8 -1 -28 -5 -45 -8 -16 -4 -47 -9 -69 -12
-21 -4 -48 -9 -60 -11 -31 -6 -126 -23 -166 -29 -19 -3 -42 -8 -50 -10 -18 -5
-74 -15 -115 -20 -16 -2 -43 -6 -60 -9 -54 -10 -97 -17 -139 -23 -54 -6 -76
-10 -106 -17 -14 -4 -45 -9 -70 -11 -25 -3 -56 -7 -70 -10 -14 -3 -45 -8 -70
-11 -25 -2 -56 -7 -70 -9 -14 -3 -45 -8 -70 -11 -25 -3 -72 -9 -105 -14 -33
-5 -82 -12 -110 -15 -75 -9 -94 -13 -105 -20 -5 -3 -10 -1 -10 5 0 6 -4 9 -8
6 -10 -6 -44 -12 -122 -21 -30 -3 -73 -9 -95 -12 -22 -2 -62 -7 -90 -8 -27 -2
-52 -5 -55 -6 -3 -1 -13 -1 -23 0 -9 1 -17 0 -17 -2 0 -2 -5 -29 -11 -58 -5
-30 -12 -67 -15 -84 -12 -77 -14 -91 -31 -220 -10 -77 -11 -398 -1 -429 5 -17
12 -44 15 -61 7 -39 39 -102 66 -129 38 -37 225 -117 377 -161 60 -17 162 -46
175 -49 6 -2 17 -6 25 -9 8 -4 26 -8 40 -11 14 -2 39 -9 55 -16 17 -6 31 -11
33 -10 5 2 81 -14 102 -23 8 -3 29 -8 45 -11 26 -4 52 -10 140 -31 11 -3 30
-7 43 -9 13 -3 31 -7 40 -10 9 -3 28 -8 42 -10 14 -3 45 -10 70 -16 25 -6 56
-13 70 -16 14 -2 32 -7 40 -9 8 -2 29 -7 45 -10 17 -2 41 -7 55 -10 14 -3 36
-8 50 -11 87 -17 169 -34 181 -38 8 -3 31 -7 52 -10 20 -3 92 -17 160 -30 67
-13 136 -27 152 -30 17 -3 51 -10 77 -16 26 -5 69 -12 95 -16 26 -3 51 -8 54
-10 8 -5 92 -19 177 -31 23 -3 41 -10 40 -15 -3 -9 -60 -34 -93 -41 -5 -2 -15
-6 -21 -9 -6 -4 -23 -9 -39 -12 -49 -9 -51 -35 -3 -36 5 0 25 -7 45 -14 36
-14 130 -37 163 -41 8 -1 26 -5 40 -8 23 -6 53 -12 105 -22 11 -2 31 -7 45
-10 14 -3 36 -8 50 -11 80 -15 308 -57 327 -60 33 -6 63 -11 103 -18 68 -13
145 -26 175 -30 17 -3 44 -7 60 -10 62 -12 100 -19 115 -21 17 -2 80 -13 125
-21 17 -3 41 -7 55 -9 43 -7 94 -16 120 -21 25 -5 176 -30 235 -40 17 -2 42
-7 57 -10 15 -3 39 -7 55 -9 15 -2 42 -6 58 -9 43 -7 119 -20 125 -21 3 -1 30
-5 60 -9 30 -5 64 -10 75 -12 10 -2 35 -6 55 -9 20 -3 47 -7 60 -10 29 -6 97
-16 127 -20 12 -2 35 -6 53 -10 17 -4 47 -8 68 -10 20 -2 75 -11 122 -20 84
-15 136 -23 195 -30 17 -2 30 -4 30 -5 0 -1 9 -3 20 -5 11 -1 36 -5 55 -8 19
-4 53 -9 75 -12 22 -3 51 -7 65 -10 14 -3 43 -7 65 -11 22 -3 54 -8 70 -11 17
-3 41 -7 55 -8 14 -2 41 -6 60 -10 19 -3 51 -7 72 -9 20 -2 61 -9 91 -16 30
-6 58 -10 63 -9 5 1 11 0 14 -1 9 -3 43 -9 120 -21 41 -6 86 -13 100 -15 14
-2 41 -6 60 -9 87 -13 106 -16 125 -19 11 -3 20 -5 20 -6 0 -1 16 -3 35 -4 19
-1 49 -6 65 -9 17 -4 48 -9 70 -12 91 -13 132 -19 225 -35 60 -11 105 -17 164
-25 21 -2 64 -9 95 -14 31 -6 72 -12 91 -15 19 -3 46 -8 60 -10 14 -2 59 -10
100 -16 41 -6 89 -14 105 -16 17 -3 48 -8 70 -10 22 -3 47 -7 55 -8 8 -2 40
-6 70 -11 30 -4 64 -9 75 -11 43 -9 72 -13 120 -19 27 -3 57 -7 65 -9 8 -3 38
-8 65 -11 28 -4 61 -9 75 -11 14 -3 43 -6 65 -9 22 -2 40 -5 40 -5 0 -1 17 -3
37 -6 36 -4 38 -2 79 57 58 85 249 333 260 337 5 2 9 9 9 15 0 7 12 26 28 42
15 17 54 66 87 110 33 44 62 82 65 85 4 3 37 46 75 95 131 171 270 350 287
370 9 11 73 94 143 185 136 178 165 215 208 265 15 18 27 38 27 44 0 6 3 11 8
11 4 0 39 42 77 93 39 50 75 99 82 107 42 53 111 141 128 164 19 26 29 39 65
83 9 10 29 36 45 58 16 22 48 63 70 92 22 28 50 64 62 80 12 15 31 39 42 52
12 13 21 27 21 30 0 3 12 20 28 36 15 17 47 57 71 90 25 33 47 62 50 65 4 3
26 32 50 65 25 33 48 62 53 63 4 2 8 10 8 18 0 8 4 14 8 14 4 0 38 39 74 88
144 189 182 237 190 240 4 2 8 10 8 18 0 8 4 14 9 14 4 0 20 17 33 38 14 20
35 48 47 62 11 14 47 59 78 100 32 41 60 77 63 80 3 3 34 43 70 90 35 47 69
90 75 96 5 6 17 21 25 34 8 12 25 34 37 48 39 49 223 285 240 310 10 13 23 29
28 36 6 6 40 49 75 96 35 47 72 93 82 103 10 10 18 21 18 25 0 4 10 19 23 32
12 14 51 64 86 110 36 47 70 92 78 100 7 8 27 33 44 55 16 22 35 47 42 55 45
57 127 167 127 172 0 3 -33 6 -72 8 -40 1 -111 4 -158 6 -47 1 -152 5 -235 9
-151 6 -274 9 -750 21 -234 6 -1394 12 -1399 7z m-3791 -893 c0 -1 113 -3 250
-6 266 -5 465 -10 477 -13 4 0 5 -97 3 -213 -2 -117 -6 -282 -7 -366 l-3 -153
-295 6 c-162 3 -403 8 -535 11 -132 2 -261 6 -287 7 l-48 4 -1 -41 c-1 -23 -2
-102 -4 -176 -2 -74 -6 -277 -10 -450 -4 -173 -7 -356 -8 -407 l-1 -91 -33 -4
c-18 -2 -33 -2 -33 2 0 3 -91 6 -203 7 -111 0 -262 2 -335 4 l-133 2 5 244 c3
134 8 248 11 253 3 5 1 11 -5 15 -6 4 -7 12 -1 23 5 9 5 26 1 38 -5 12 -6 25
-2 28 3 4 7 68 8 144 1 75 3 201 5 279 l2 141 211 -4 c415 -9 518 -9 522 -2 3
4 7 108 9 230 2 123 5 225 6 228 0 3 1 19 0 35 -1 17 -1 35 -1 40 0 29 8 190
9 192 1 2 426 -5 426 -7z"/>
<path d="M11475 9031 c-33 -9 -78 -26 -100 -37 -56 -30 -125 -108 -159 -177
-53 -109 -41 -269 28 -372 88 -133 253 -201 410 -170 116 23 254 146 280 250
2 6 7 19 12 30 12 29 10 189 -3 217 -6 12 -17 38 -25 56 -7 17 -16 32 -20 32
-5 0 -8 6 -8 13 0 17 -75 89 -125 119 -83 51 -193 65 -290 39z"/>
<path d="M8173 4917 c3 -73 8 -145 11 -162 3 -16 7 -49 10 -73 3 -24 8 -47 11
-53 4 -5 1 -9 -5 -9 -7 0 -8 -6 -1 -17 5 -10 12 -54 16 -98 3 -43 8 -82 10
-85 2 -3 6 -35 9 -72 4 -37 9 -76 11 -87 2 -11 6 -48 10 -83 3 -35 10 -92 15
-128 5 -36 12 -92 15 -125 3 -33 8 -71 11 -85 3 -14 7 -45 9 -70 3 -25 7 -65
10 -90 4 -25 8 -63 10 -85 3 -22 7 -56 10 -75 2 -19 7 -60 10 -90 4 -30 8 -66
11 -80 2 -14 7 -47 9 -75 3 -27 8 -66 10 -85 5 -37 15 -125 20 -175 1 -16 5
-41 8 -55 3 -14 9 -52 12 -85 3 -33 8 -76 10 -95 3 -19 7 -57 10 -85 2 -27 7
-60 9 -72 3 -12 7 -50 11 -85 3 -35 8 -76 10 -93 3 -16 7 -52 11 -80 3 -27 7
-63 9 -80 3 -16 6 -54 9 -84 5 -62 12 -72 58 -76 18 -2 46 -6 61 -10 16 -3 53
-7 83 -8 29 -1 54 -5 54 -8 0 -3 6 -6 13 -6 6 0 35 -3 62 -6 51 -6 64 -8 195
-27 41 -6 93 -13 115 -16 22 -2 51 -6 65 -8 14 -2 48 -7 75 -10 28 -4 64 -9
80 -12 17 -3 48 -7 70 -9 22 -2 56 -6 75 -9 48 -7 187 -27 222 -32 16 -2 48
-6 71 -10 48 -7 84 -12 147 -18 25 -3 61 -8 80 -12 19 -3 51 -8 70 -10 41 -4
95 -12 95 -14 0 -1 20 -3 45 -5 54 -5 107 -13 137 -19 12 -3 46 -7 75 -10 29
-4 63 -8 76 -11 13 -2 51 -7 85 -10 34 -4 64 -8 67 -10 3 -2 34 -6 69 -10 34
-4 72 -8 83 -10 11 -3 38 -5 59 -7 22 -1 39 -5 39 -9 0 -8 487 -5 570 4 136
13 300 51 300 69 0 5 4 7 8 4 15 -9 66 53 68 82 2 59 -120 134 -443 270 -40
17 -73 28 -73 24 0 -4 -4 -2 -8 3 -4 6 -29 18 -57 29 -182 68 -320 117 -465
166 -36 12 -74 25 -85 30 -18 8 -273 93 -285 95 -4 1 -333 106 -380 121 -8 3
-15 5 -15 4 0 -1 -13 4 -30 10 -16 7 -39 14 -49 16 -37 7 -121 37 -130 45 -13
12 -10 12 67 -10 37 -11 67 -17 67 -15 0 3 8 0 18 -5 9 -5 31 -11 47 -14 17
-3 41 -9 55 -12 14 -4 34 -8 45 -10 11 -3 38 -9 60 -15 22 -6 51 -13 65 -16
14 -3 52 -11 85 -20 33 -8 69 -16 80 -18 11 -3 40 -9 65 -15 25 -5 56 -12 70
-14 14 -3 36 -8 50 -11 30 -7 73 -15 115 -22 17 -2 50 -9 75 -15 63 -13 79
-16 140 -24 29 -4 62 -9 74 -11 12 -3 37 -7 56 -9 19 -3 64 -9 100 -14 36 -5
72 -9 80 -10 8 0 49 -3 90 -7 101 -9 324 -9 380 -1 66 11 72 12 103 25 16 7
32 12 36 12 14 0 41 36 41 53 0 38 -58 106 -131 153 -24 16 -48 32 -54 37 -34
26 -102 67 -112 67 -6 0 -13 3 -15 8 -8 19 -441 231 -688 337 -36 15 -87 38
-115 50 -103 46 -159 70 -164 70 -3 1 -22 8 -41 17 -57 26 -149 60 -156 58 -4
-1 -10 2 -13 7 -3 4 -55 28 -116 51 -60 24 -123 50 -140 57 -16 7 -61 25 -100
40 -38 14 -78 30 -87 36 -10 5 -23 9 -28 9 -6 0 -30 9 -52 20 -23 11 -49 20
-58 20 -9 0 -20 4 -26 9 -5 5 -58 27 -119 49 -60 22 -157 59 -215 81 -58 22
-112 41 -120 41 -8 0 -26 9 -40 19 -19 15 -6 13 60 -10 47 -17 92 -32 100 -34
8 -2 16 -4 18 -5 1 -2 5 -3 10 -4 4 -1 54 -17 112 -35 109 -34 266 -84 310
-97 14 -4 28 -7 33 -6 4 1 7 -3 7 -9 0 -5 4 -8 9 -4 5 3 20 1 33 -4 13 -5 95
-30 183 -56 88 -25 171 -50 185 -55 14 -5 36 -12 50 -15 14 -2 68 -16 120 -31
52 -14 131 -34 175 -45 44 -11 114 -29 155 -39 41 -11 90 -22 109 -25 19 -3
38 -8 43 -11 4 -3 29 -9 56 -14 26 -4 57 -10 68 -13 29 -7 93 -18 124 -21 14
-2 34 -6 45 -9 11 -3 43 -9 70 -12 28 -3 70 -9 95 -12 57 -9 245 -10 288 -1
75 15 106 61 78 115 -37 72 -202 189 -476 335 -19 11 -46 26 -60 33 -14 8 -50
26 -80 40 -30 14 -78 39 -107 54 -29 16 -55 26 -58 23 -3 -3 -5 0 -5 6 0 7 -3
11 -7 10 -5 -1 -44 15 -88 36 -44 21 -107 51 -140 66 -33 15 -98 45 -145 67
-47 22 -89 41 -95 43 -5 2 -39 16 -75 32 -36 16 -92 41 -125 55 -33 14 -84 36
-113 49 -29 13 -54 24 -56 24 -2 0 -21 8 -42 17 -22 9 -41 17 -44 18 -3 0 -9
3 -15 7 -5 3 -62 27 -125 52 -63 26 -124 51 -135 56 -11 5 -110 46 -220 90
-110 45 -214 87 -232 95 -17 8 -33 15 -36 15 -3 0 -18 5 -34 12 -15 6 -30 12
-33 13 -3 1 -21 8 -40 16 -19 7 -38 12 -42 11 -5 -1 -8 3 -8 8 0 6 -6 10 -13
10 -8 0 -58 18 -113 41 -54 22 -103 42 -109 43 -9 1 -73 27 -180 71 -16 7 -52
21 -80 30 -27 10 -56 23 -62 28 -7 5 -13 7 -13 4 0 -3 -57 17 -127 44 -71 28
-147 57 -170 65 -23 8 -75 28 -114 44 l-72 29 6 -132z m1042 -1067 c3 -6 -1
-7 -9 -4 -18 7 -21 14 -7 14 6 0 13 -4 16 -10z m69 -19 c4 -5 -3 -7 -14 -4
-23 6 -26 13 -6 13 8 0 17 -4 20 -9z m450 -1018 c4 -5 11 -8 14 -9 37 -4 82
-18 82 -25 0 -12 -1 -12 -44 6 -20 8 -37 14 -38 13 -2 -1 -12 3 -23 10 -11 6
-15 12 -9 12 6 0 14 -3 18 -7z"/>
</g>
</svg>
